<?xml version="1.0" encoding="UTF-8" standalone="no"?>
<svg
   xmlns:dc="http://purl.org/dc/elements/1.1/"
   xmlns:cc="http://creativecommons.org/ns#"
   xmlns:rdf="http://www.w3.org/1999/02/22-rdf-syntax-ns#"
   xmlns:svg="http://www.w3.org/2000/svg"
   xmlns="http://www.w3.org/2000/svg"
   viewBox="0 0 2160 1620"
   height="1620"
   width="2160"
   xml:space="preserve"
   version="1.1"
   id="svg2"><metadata
     id="metadata8"><rdf:RDF><cc:Work
         rdf:about=""><dc:format>image/svg+xml</dc:format><dc:type
           rdf:resource="http://purl.org/dc/dcmitype/StillImage" /><dc:title></dc:title></cc:Work></rdf:RDF></metadata><defs
     id="defs6"><clipPath
       id="clipPath20"
       clipPathUnits="userSpaceOnUse"><path
         id="path22"
         d="m 0,1296 1728,0 L 1728,0 0,0 0,1296 Z" /></clipPath><clipPath
       id="clipPath96"
       clipPathUnits="userSpaceOnUse"><path
         id="path98"
         d="m 0,1296 1728,0 L 1728,0 0,0 0,1296 Z" /></clipPath></defs><g
     transform="matrix(1.25,0,0,-1.25,0,1620)"
     id="g10"><g
       transform="translate(644.7412,1223.0479)"
       id="g12"><path
         id="path14"
         style="fill:none;stroke:#231f20;stroke-width:0.072;stroke-linecap:butt;stroke-linejoin:miter;stroke-miterlimit:4;stroke-dasharray:none;stroke-opacity:1"
         d="M 0,0 193.266,0" /></g><g
       id="g16"><g
         clip-path="url(#clipPath20)"
         id="g18"><g
           transform="translate(635.1025,1043.0479)"
           id="g24"><path
             id="path26"
             style="fill:none;stroke:#231f20;stroke-width:0.072;stroke-linecap:butt;stroke-linejoin:miter;stroke-miterlimit:4;stroke-dasharray:none;stroke-opacity:1"
             d="m 0,0 0,34.271 c 0,5.245 4.225,9.524 9.412,9.667 l 0.227,0 m 9.806,-136.065 -9.806,0 -0.227,0 C 4.195,-91.984 0,-87.705 0,-82.461 l 0,0.256 M 202.904,43.938 c 5.301,0 9.666,-4.338 9.666,-9.667 l 0,-34.271 8.986,0 3.4,0 8.533,0 c 0.963,0 1.758,-0.795 1.758,-1.758 l 0,-10.658 c 0,-0.963 -0.795,-1.758 -1.758,-1.758 l -8.533,0 -3.4,0 -8.986,0 0,-53.857 8.986,0 3.43,0 8.504,0 c 0.963,0 1.758,-0.795 1.758,-1.758 l 0,-10.658 c 0,-0.965 -0.795,-1.758 -1.758,-1.758 l -8.504,0 -3.43,0 -8.986,0 0,-0.256 c 0,-5.301 -4.337,-9.666 -9.666,-9.666" /></g><g
           transform="translate(635.1025,1179.1104)"
           id="g28"><path
             id="path30"
             style="fill:none;stroke:#231f20;stroke-width:0.072;stroke-linecap:butt;stroke-linejoin:miter;stroke-miterlimit:4;stroke-dasharray:none;stroke-opacity:1"
             d="m 0,0 0,34.271 c 0,5.243 4.225,9.522 9.412,9.667 l 0.227,0 m 193.265,0 c 5.301,0 9.666,-4.338 9.666,-9.667 l 0,-34.271 8.986,0 3.4,0 8.533,0 c 0.963,0 1.758,-0.793 1.758,-1.758 l 0,-10.658 c 0,-0.963 -0.795,-1.758 -1.758,-1.758 l -8.533,0 -3.4,0 -8.986,0 0,-53.857 8.986,0 3.43,0 8.504,0 c 0.963,0 1.758,-0.793 1.758,-1.758 l 0,-10.658 c 0,-0.963 -0.795,-1.758 -1.758,-1.758 l -8.504,0 -3.43,0 -8.986,0 0,-0.254 c 0,-5.301 -4.337,-9.666 -9.666,-9.666 l -193.265,0 -0.227,0 C 4.195,-91.984 0,-87.703 0,-82.459 l 0,0.254" /></g><g
           transform="translate(635.1025,858.7959)"
           id="g32"><path
             id="path34"
             style="fill:none;stroke:#231f20;stroke-width:0.072;stroke-linecap:butt;stroke-linejoin:miter;stroke-miterlimit:4;stroke-dasharray:none;stroke-opacity:1"
             d="m 0,0 0,-34.271 c 0,-5.245 4.225,-9.522 9.412,-9.667 l 0.227,0 m 193.265,0 c 5.301,0 9.666,4.338 9.666,9.667 l 0,34.271 8.986,0 3.4,0 8.533,0 c 0.963,0 1.758,0.793 1.758,1.758 l 0,10.658 c 0,0.963 -0.795,1.758 -1.758,1.758 l -8.533,0 -3.4,0 -8.986,0 0,53.855 8.986,0 3.43,0 8.504,0 c 0.963,0 1.758,0.793 1.758,1.76 l 0,10.656 c 0,0.965 -0.795,1.76 -1.758,1.76 l -8.504,0 -3.43,0 -8.986,0 0,0.254 c 0,5.301 -4.337,9.666 -9.666,9.666 l -183.459,0 -9.806,0 -0.227,0 C 4.195,91.982 0,87.703 0,82.459 l 0,-0.254" /></g><g
           transform="translate(148.5381,849.8975)"
           id="g36"><path
             id="path38"
             style="fill:none;stroke:#231f20;stroke-width:0.072;stroke-linecap:butt;stroke-linejoin:miter;stroke-miterlimit:4;stroke-dasharray:none;stroke-opacity:1"
             d="m 0,0 0,0 0,-0.227 c -0.144,-5.187 -4.423,-9.412 -9.667,-9.412 l -116.478,0 m 0,0 -0.254,0 c -5.245,0 -9.525,4.196 -9.666,9.412 l 0,0.227 0,9.807 0,183.459 c 0,5.329 4.365,9.666 9.666,9.666 l 0.254,0 0,8.985 0,3.431 0,8.504 c 0,0.962 0.794,1.757 1.758,1.757 l 10.658,0 c 0.964,0 1.758,-0.795 1.758,-1.757 l 0,-8.504 0,-3.431 0,-8.985 53.859,0 0,8.985 0,3.4 0,8.534 c 0,0.962 0.793,1.757 1.757,1.757 l 10.658,0 c 0.964,0 1.758,-0.795 1.758,-1.757 l 0,-8.534 0,-3.4 0,-8.985 34.27,0 c 5.33,0 9.668,-4.366 9.668,-9.666" /></g><g
           transform="translate(284.5986,849.8975)"
           id="g40"><path
             id="path42"
             style="fill:none;stroke:#231f20;stroke-width:0.072;stroke-linecap:butt;stroke-linejoin:miter;stroke-miterlimit:4;stroke-dasharray:none;stroke-opacity:1"
             d="m 0,0 0,0 0,-0.227 c -0.142,-5.187 -4.422,-9.412 -9.666,-9.412 l -116.73,0 m 0.256,0 -0.256,0 c -5.243,0 -9.523,4.196 -9.666,9.412 l 0,0.227 0,9.807 0,183.459 c 0,5.329 4.366,9.666 9.666,9.666 l 0.256,0 0,8.985 0,3.431 0,8.504 c 0,0.962 0.794,1.757 1.757,1.757 l 10.658,0 c 0.965,0 1.758,-0.795 1.758,-1.757 l 0,-8.504 0,-3.431 0,-8.985 53.859,0 0,8.985 0,3.4 0,8.534 c 0,0.962 0.793,1.757 1.757,1.757 l 10.659,0 c 0.963,0 1.756,-0.795 1.756,-1.757 l 0,-8.534 0,-3.4 0,-8.985 34.271,0 c 5.329,0 9.666,-4.366 9.666,-9.666" /></g><g
           transform="translate(328.5356,1288.4795)"
           id="g44"><path
             id="path46"
             style="fill:none;stroke:#231f20;stroke-width:0.072;stroke-linecap:butt;stroke-linejoin:miter;stroke-miterlimit:4;stroke-dasharray:none;stroke-opacity:1"
             d="m 0,0 -34.271,0 c -5.244,0 -9.524,-4.225 -9.667,-9.412 l 0,-0.227 m 0,-193.265 c 0,-5.301 4.338,-9.666 9.667,-9.666 l 34.271,0 0,-8.986 0,-3.4 0,-8.533 c 0,-0.963 0.794,-1.758 1.758,-1.758 l 10.658,0 c 0.964,0 1.758,0.795 1.758,1.758 l 0,8.533 0,3.4 0,8.986 53.858,0 0,-8.986 0,-3.43 0,-8.504 c 0,-0.963 0.793,-1.758 1.757,-1.758 l 10.658,0 c 0.964,0 1.758,0.795 1.758,1.758 l 0,8.504 0,3.43 0,8.986 0.255,0 c 5.301,0 9.666,4.337 9.666,9.666 l 0,183.459 0,9.806 0,0.227 C 91.984,-4.195 87.704,0 82.46,0 l -0.255,0" /></g><g
           transform="translate(192.4731,1288.4795)"
           id="g48"><path
             id="path50"
             style="fill:none;stroke:#231f20;stroke-width:0.072;stroke-linecap:butt;stroke-linejoin:miter;stroke-miterlimit:4;stroke-dasharray:none;stroke-opacity:1"
             d="m 0,0 -34.271,0 c -5.243,0 -9.522,-4.225 -9.666,-9.412 l 0,-0.227 m -0.001,-193.265 c 0,-5.301 4.337,-9.666 9.667,-9.666 l 34.271,0 0,-8.986 0,-3.4 0,-8.533 c 0,-0.963 0.793,-1.758 1.758,-1.758 l 10.658,0 c 0.963,0 1.757,0.795 1.757,1.758 l 0,8.533 0,3.4 0,8.986 53.857,0 0,-8.986 0,-3.43 0,-8.504 c 0,-0.963 0.794,-1.758 1.759,-1.758 l 10.657,0 c 0.964,0 1.759,0.795 1.759,1.758 l 0,8.504 0,3.43 0,8.986 0.254,0 c 5.302,0 9.666,4.337 9.666,9.666 l 0,183.459 0,9.806 0,0.227 C 91.983,-4.195 87.703,0 82.459,0 l -0.254,0" /></g><g
           transform="translate(635.0752,688.4619)"
           id="g52"><path
             id="path54"
             style="fill:none;stroke:#231f20;stroke-width:0.072;stroke-linecap:butt;stroke-linejoin:miter;stroke-miterlimit:4;stroke-dasharray:none;stroke-opacity:1"
             d="m 0,0 0,34.271 0,14.172 0,53.86 0,14.172 0,0.255 c 0,5.245 4.224,9.526 9.41,9.666 l 0.228,0 9.808,0 183.457,0 c 5.301,0 9.668,-4.335 9.668,-9.666 l 0,-0.255 8.985,0 3.429,0 8.504,0 c 0.965,0 1.758,-0.793 1.758,-1.756 l 0,-10.658 c 0,-0.965 -0.793,-1.758 -1.758,-1.758 l -8.504,0 -3.429,0 -8.985,0 0,-53.86 8.985,0 3.401,0 8.531,0 c 0.965,0 1.758,-0.793 1.758,-1.755 l 0,-10.661 c 0,-0.963 -0.793,-1.756 -1.758,-1.756 l -8.531,0 -3.401,0 -8.985,0 0,-34.271 c 0,-5.301 -4.338,-9.666 -9.668,-9.666 l -183.458,0 -9.808,0 -0.228,0 C 4.195,-9.525 0,-5.244 0,0 Z" /></g><g
           transform="translate(284.5996,849.6406)"
           id="g56"><path
             id="path58"
             style="fill:none;stroke:#231f20;stroke-width:0.072;stroke-linecap:butt;stroke-linejoin:miter;stroke-miterlimit:4;stroke-dasharray:none;stroke-opacity:1"
             d="m 0,0 0,0.228 0,9.808 0,183.458 c 0,5.33 4.365,9.668 9.666,9.668 l 0.255,0 0,8.984 0,3.43 0,8.504 c 0,0.965 0.794,1.758 1.758,1.758 l 10.658,0 c 0.964,0 1.758,-0.793 1.758,-1.758 l 0,-8.504 0,-3.43 0,-8.984 53.858,0 0,8.984 0,3.402 0,8.531 c 0,0.965 0.793,1.758 1.757,1.758 l 10.658,0 c 0.964,0 1.758,-0.793 1.758,-1.758 l 0,-8.531 0,-3.402 0,-8.984 34.27,0 c 5.33,0 9.666,-4.367 9.666,-9.668 l 0,-183.457 0,-9.808 0,-0.228 c -0.141,-5.187 -4.422,-9.41 -9.666,-9.41 l -34.27,0 -14.173,0 -53.858,0 -14.174,0 -0.255,0 C 4.422,-9.409 0.143,-5.214 0,0 Z" /></g><g
           transform="translate(22.1392,1288.5068)"
           id="g60"><path
             id="path62"
             style="fill:none;stroke:#231f20;stroke-width:0.072;stroke-linecap:butt;stroke-linejoin:miter;stroke-miterlimit:4;stroke-dasharray:none;stroke-opacity:1"
             d="m 0,0 34.271,0 14.174,0 53.859,0 14.173,0 0.254,0 c 5.245,0 9.525,-4.224 9.666,-9.41 l 0,-0.228 0,-9.808 0,-183.457 c 0,-5.301 -4.336,-9.668 -9.666,-9.668 l -0.254,0 0,-8.985 0,-3.429 0,-8.504 c 0,-0.965 -0.794,-1.758 -1.758,-1.758 l -10.658,0 c -0.964,0 -1.757,0.793 -1.757,1.758 l 0,8.504 0,3.429 0,8.985 -53.859,0 0,-8.985 0,-3.401 0,-8.531 c 0,-0.965 -0.794,-1.758 -1.757,-1.758 l -10.659,0 c -0.964,0 -1.758,0.793 -1.758,1.758 l 0,8.531 0,3.401 0,8.985 -34.271,0 c -5.301,0 -9.666,4.338 -9.666,9.668 l 0,183.458 0,9.808 0,0.228 C -9.524,-4.195 -5.244,0 0,0 Z" /></g><g
           transform="translate(192.4731,1288.5068)"
           id="g64"><path
             id="path66"
             style="fill:none;stroke:#231f20;stroke-width:0.072;stroke-linecap:butt;stroke-linejoin:miter;stroke-miterlimit:4;stroke-dasharray:none;stroke-opacity:1"
             d="M 0,0 82.205,0" /></g><g
           transform="translate(328.5356,1288.5068)"
           id="g68"><path
             id="path70"
             style="fill:none;stroke:#231f20;stroke-width:0.072;stroke-linecap:butt;stroke-linejoin:miter;stroke-miterlimit:4;stroke-dasharray:none;stroke-opacity:1"
             d="M 0,0 82.46,0" /></g><g
           transform="translate(635.0752,858.7959)"
           id="g72"><path
             id="path74"
             style="fill:none;stroke:#231f20;stroke-width:0.072;stroke-linecap:butt;stroke-linejoin:miter;stroke-miterlimit:4;stroke-dasharray:none;stroke-opacity:1"
             d="M 0,0 0,82.459" /></g><g
           transform="translate(635.0752,960.8428)"
           id="g76"><path
             id="path78"
             style="fill:none;stroke:#231f20;stroke-width:0.072;stroke-linecap:butt;stroke-linejoin:miter;stroke-miterlimit:4;stroke-dasharray:none;stroke-opacity:1"
             d="M 0,0 0,82.205" /></g><g
           transform="translate(635.0752,1096.6514)"
           id="g80"><path
             id="path82"
             style="fill:none;stroke:#231f20;stroke-width:0.072;stroke-linecap:butt;stroke-linejoin:miter;stroke-miterlimit:4;stroke-dasharray:none;stroke-opacity:1"
             d="M 0,0 0,82.459" /></g><g
           transform="translate(420.6616,849.6685)"
           id="g84"><path
             id="path86"
             style="fill:none;stroke:#231f20;stroke-width:0.072;stroke-linecap:butt;stroke-linejoin:miter;stroke-miterlimit:4;stroke-dasharray:none;stroke-opacity:1"
             d="m 0,0 0,0.228 0,9.808 0,183.458 c 0,5.33 4.365,9.668 9.666,9.668 l 0.255,0 0,8.984 0,3.43 0,8.504 c 0,0.965 0.794,1.758 1.758,1.758 l 10.658,0 c 0.964,0 1.758,-0.793 1.758,-1.758 l 0,-8.504 0,-3.43 0,-8.984 53.858,0 0,8.984 0,3.402 0,8.531 c 0,0.965 0.793,1.758 1.757,1.758 l 10.658,0 c 0.964,0 1.758,-0.793 1.758,-1.758 l 0,-8.531 0,-3.402 0,-8.984 34.27,0 c 5.33,0 9.666,-4.367 9.666,-9.668 l 0,-183.457 0,-9.808 0,-0.228 c -0.141,-5.187 -4.422,-9.41 -9.666,-9.41 l -34.27,0 -14.173,0 -53.858,0 -14.174,0 -0.255,0 C 4.422,-9.409 0.143,-5.214 0,0 Z" /></g><g
           transform="translate(430.3267,1288.479)"
           id="g88"><path
             id="path90"
             style="fill:none;stroke:#231f20;stroke-width:0.072;stroke-linecap:butt;stroke-linejoin:miter;stroke-miterlimit:4;stroke-dasharray:none;stroke-opacity:1"
             d="m 0,0 34.271,0 14.174,0 53.859,0 14.173,0 0.254,0 c 5.245,0 9.525,-4.224 9.666,-9.41 l 0,-0.228 0,-9.808 0,-183.457 c 0,-5.301 -4.336,-9.668 -9.666,-9.668 l -0.254,0 0,-8.985 0,-3.429 0,-8.504 c 0,-0.965 -0.794,-1.758 -1.758,-1.758 l -10.658,0 c -0.964,0 -1.757,0.793 -1.757,1.758 l 0,8.504 0,3.429 0,8.985 -53.859,0 0,-8.985 0,-3.401 0,-8.531 c 0,-0.965 -0.794,-1.758 -1.757,-1.758 l -10.659,0 c -0.964,0 -1.758,0.793 -1.758,1.758 l 0,8.531 0,3.401 0,8.985 -34.271,0 c -5.301,0 -9.666,4.338 -9.666,9.668 l 0,183.458 0,9.808 0,0.228 C -9.524,-4.195 -5.244,0 0,0 Z" /></g></g></g><g
       id="g92"><g
         clip-path="url(#clipPath96)"
         id="g94"><g
           transform="translate(702.3115,984.1729)"
           id="g100"><path
             id="path102"
             style="fill:none;stroke:#231f20;stroke-width:0.072;stroke-linecap:butt;stroke-linejoin:miter;stroke-miterlimit:10;stroke-dasharray:none;stroke-opacity:1"
             d="m 0,0 c -17.092,0 -30.926,14.598 -30.926,32.598 0,18 13.834,32.597 30.926,32.597 17.094,0 30.928,-14.597 30.928,-32.597 C 30.928,14.598 17.094,0 0,0 Z" /></g><g
           transform="translate(719.4053,989.6709)"
           id="g104"><path
             id="path106"
             style="fill:none;stroke:#231f20;stroke-width:0.072;stroke-linecap:butt;stroke-linejoin:miter;stroke-miterlimit:10;stroke-dasharray:none;stroke-opacity:1"
             d="M 0,0 69.193,44.107" /></g><g
           transform="translate(670.5928,1187.1885)"
           id="g108"><path
             id="path110"
             style="fill:none;stroke:#231f20;stroke-width:0.072;stroke-linecap:butt;stroke-linejoin:miter;stroke-miterlimit:10;stroke-dasharray:none;stroke-opacity:1"
             d="M 0,0 0.143,-69.703 119.48,-7.482" /></g><g
           transform="translate(671.0459,748.499)"
           id="g112"><path
             id="path114"
             style="fill:none;stroke:#231f20;stroke-width:0.072;stroke-linecap:butt;stroke-linejoin:miter;stroke-miterlimit:10;stroke-dasharray:none;stroke-opacity:1"
             d="m 0,0 c 0,15.986 11.793,28.941 26.334,28.941 13.721,0 24.973,-11.509 26.221,-26.22 1.274,17.8 15.279,31.832 32.399,31.832 17.943,0 32.484,-15.418 32.484,-34.44 0,-19.019 -14.541,-34.439 -32.484,-34.439 -17.093,0 -31.095,13.974 -32.399,31.719 C 51.362,-17.35 40.082,-28.912 26.334,-28.912 11.793,-28.912 0,-15.957 0,0.027 L 0,0 Z" /></g><g
           transform="translate(757.5889,917.3291)"
           id="g116"><path
             id="path118"
             style="fill:none;stroke:#231f20;stroke-width:0.072;stroke-linecap:butt;stroke-linejoin:miter;stroke-miterlimit:10;stroke-dasharray:none;stroke-opacity:1"
             d="m 0,0 c 17.091,0 30.981,-14.627 30.981,-32.654 0,-18.03 -13.861,-32.655 -30.981,-32.655 -17.094,0 -30.984,14.625 -30.984,32.655 C -30.984,-14.627 -17.123,0 0,0 Z" /></g><g
           transform="translate(740.4658,911.8584)"
           id="g120"><path
             id="path122"
             style="fill:none;stroke:#231f20;stroke-width:0.072;stroke-linecap:butt;stroke-linejoin:miter;stroke-miterlimit:10;stroke-dasharray:none;stroke-opacity:1"
             d="M 0,0 -69.307,-44.221" /></g><g
           transform="translate(238.5322,882.7217)"
           id="g124"><path
             id="path126"
             style="fill:none;stroke:#231f20;stroke-width:0.072;stroke-linecap:butt;stroke-linejoin:miter;stroke-miterlimit:10;stroke-dasharray:none;stroke-opacity:1"
             d="m 0,0 -25.682,-6.463 0.114,117.582" /></g><g
           transform="translate(379.2725,902.4229)"
           id="g128"><path
             id="path130"
             style="fill:none;stroke:#231f20;stroke-width:0.072;stroke-linecap:butt;stroke-linejoin:miter;stroke-miterlimit:10;stroke-dasharray:none;stroke-opacity:1"
             d="m 0,0 c -7.822,-35.291 -56.862,-33.676 -58.109,0.283 1.728,16.102 13.464,24.152 33.93,26.051 -24.434,-0.396 -42.434,8.815 -41.81,34.215 8.05,41.074 63.069,41.724 70.582,0.283" /></g><g
           transform="translate(449.0615,876.3721)"
           id="g132"><path
             id="path134"
             style="fill:none;stroke:#231f20;stroke-width:0.072;stroke-linecap:butt;stroke-linejoin:miter;stroke-miterlimit:10;stroke-dasharray:none;stroke-opacity:1"
             d="M 0,0 48.897,0 57.94,48.389 C 29.452,34.611 2.637,49.493 2.778,83.963 c 6.037,39.912 59.074,46.231 68.683,5.641" /></g><g
           transform="translate(172.3784,1166.873)"
           id="g136"><path
             id="path138"
             style="fill:none;stroke:#231f20;stroke-width:0.072;stroke-linecap:butt;stroke-linejoin:miter;stroke-miterlimit:10;stroke-dasharray:none;stroke-opacity:1"
             d="m 0,0 80.702,0 -59.953,85.663 0,-117.439" /></g><g
           transform="translate(314.4224,1135.0967)"
           id="g140"><path
             id="path142"
             style="fill:none;stroke:#231f20;stroke-width:0.072;stroke-linecap:butt;stroke-linejoin:miter;stroke-miterlimit:10;stroke-dasharray:none;stroke-opacity:1"
             d="M 0,0 65.026,0 C 41.329,25.399 0,65.877 0,80.588 c -0.254,44.873 61.995,52.981 68.77,0.766" /></g><g
           transform="translate(508.1245,1193.8027)"
           id="g144"><path
             id="path146"
             style="fill:none;stroke:#231f20;stroke-width:0.072;stroke-linecap:butt;stroke-linejoin:miter;stroke-miterlimit:10;stroke-dasharray:none;stroke-opacity:1"
             d="m 0,0 c 0,-32.428 -16.242,-58.734 -36.255,-58.734 -20.014,0 -36.255,26.306 -36.255,58.734 0,32.427 16.241,58.733 36.255,58.733 C -16.242,58.733 0,32.427 0,0 Z" /></g><g
           transform="translate(517.666,1132.3955)"
           id="g148"><path
             id="path150"
             style="fill:none;stroke:#231f20;stroke-width:0.072;stroke-linecap:butt;stroke-linejoin:miter;stroke-miterlimit:10;stroke-dasharray:none;stroke-opacity:1"
             d="m 0,0 -0.113,117.582 25.681,-6.463" /></g><g
           transform="translate(70.4702,882.7495)"
           id="g152"><path
             id="path154"
             style="fill:none;stroke:#231f20;stroke-width:0.072;stroke-linecap:butt;stroke-linejoin:miter;stroke-miterlimit:10;stroke-dasharray:none;stroke-opacity:1"
             d="m 0,0 -25.682,-6.463 0.114,117.582" /></g><g
           transform="translate(123.4922,882.6128)"
           id="g156"><path
             id="path158"
             style="fill:none;stroke:#231f20;stroke-width:0.072;stroke-linecap:butt;stroke-linejoin:miter;stroke-miterlimit:10;stroke-dasharray:none;stroke-opacity:1"
             d="m 0,0 -25.682,-6.463 0.114,117.582" /></g><g
           transform="translate(109.4785,1132.3677)"
           id="g160"><path
             id="path162"
             style="fill:none;stroke:#231f20;stroke-width:0.072;stroke-linecap:butt;stroke-linejoin:miter;stroke-miterlimit:10;stroke-dasharray:none;stroke-opacity:1"
             d="m 0,0 -0.113,117.582 25.681,-6.463" /></g><g
           transform="translate(22.1406,1135.0688)"
           id="g164"><path
             id="path166"
             style="fill:none;stroke:#231f20;stroke-width:0.072;stroke-linecap:butt;stroke-linejoin:miter;stroke-miterlimit:10;stroke-dasharray:none;stroke-opacity:1"
             d="M 0,0 65.026,0 C 41.329,25.399 0,65.877 0,80.588 c -0.254,44.873 61.995,52.981 68.77,0.766" /></g></g></g></g></svg>